<svg xmlns="http://www.w3.org/2000/svg" viewBox="0 0 64 64" role="img" aria-label="BugDoktor favicon">
  <rect width="64" height="64" rx="16" fill="#fff4c7"/>
  <circle cx="33" cy="31" r="24" fill="#ffcb05" stroke="#17120c" stroke-width="5"/>
  <path d="M47 17c7 10 5 25-4 33 11-4 18-18 12-31-2-5-5-8-8-10z" fill="#ff8a00"/>
  <circle cx="23" cy="29" r="5.5" fill="#17120c"/>
  <circle cx="43" cy="29" r="5.5" fill="#17120c"/>
  <path d="M24 42c4 6 14 6 18 0" fill="none" stroke="#17120c" stroke-width="4" stroke-linecap="round"/>
  <circle cx="19" cy="16" r="7" fill="#fffdf2" stroke="#17120c" stroke-width="3"/>
  <path d="M19 12v8M15 16h8" stroke="#17120c" stroke-width="3" stroke-linecap="round"/>
  <rect x="44" y="43" width="15" height="15" rx="5" fill="#ff4d3d" stroke="#17120c" stroke-width="4" transform="rotate(-10 51.5 50.5)"/>
  <path d="M49 48l5 5M54 48l-5 5" stroke="#fffdf2" stroke-width="2.5" stroke-linecap="round"/>
</svg>
